<?xml version="1.0" encoding="utf-8"?>
<!-- Generator: Adobe Illustrator 21.1.0, SVG Export Plug-In . SVG Version: 6.00 Build 0)  -->
<svg version="1.1" id="レイヤー_1" xmlns="http://www.w3.org/2000/svg" xmlns:xlink="http://www.w3.org/1999/xlink" x="0px"
	 y="0px" viewBox="0 0 146 17" style="enable-background:new 0 0 146 17;" xml:space="preserve">
<style type="text/css">
	.st0{fill:#FFFFFF;}
</style>
<g>
	<path class="st0" d="M5.7,7.6h5.7v5.7c0,1.3-0.4,2.2-1.2,2.8C9.3,16.7,8.5,17,7.6,17H3.8c-1,0-1.9-0.4-2.7-1.1
		C0.4,15.2,0,14.3,0,13.2V3.8c0-1,0.4-1.9,1.1-2.6C1.8,0.4,2.7,0,3.8,0h3.8c2.4,0,3.6,1.3,3.8,3.8H9.4C9.3,2.5,8.7,1.9,7.6,1.9H5.7
		c-0.5,0-1,0.2-1.3,0.6C4,2.8,3.8,3.3,3.8,3.8v9.5c0,0.5,0.2,1,0.6,1.3c0.4,0.4,0.8,0.5,1.3,0.5c1.2-0.1,1.8-0.7,1.9-1.9V9.4H5.7
		V7.6z"/>
	<path class="st0" d="M18.1,17h-3.8V3.8h3.8v3.8c0.1-1.3,0.5-2.2,1.2-2.8c0.6-0.6,1.5-0.9,2.6-0.9h1.9v3.8H20c-0.5,0-1,0.2-1.3,0.6
		c-0.4,0.4-0.6,0.8-0.6,1.3V17z"/>
	<path class="st0" d="M29.6,3.8h3.8c1,0,1.9,0.4,2.7,1.1c0.7,0.7,1.1,1.6,1.1,2.7v5.7c0,1-0.4,1.9-1.1,2.7c-0.7,0.7-1.6,1.1-2.7,1.1
		h-3.8c-1,0-1.9-0.4-2.7-1.1c-0.7-0.7-1.1-1.6-1.1-2.7V7.6c0-1,0.4-1.9,1.1-2.7C27.7,4.1,28.6,3.8,29.6,3.8z M29.6,7.6v5.7
		c0,0.5,0.2,0.9,0.6,1.3c0.4,0.4,0.8,0.6,1.3,0.6c0.5,0,1-0.2,1.3-0.6c0.4-0.4,0.6-0.8,0.6-1.3V7.6c0-0.5-0.2-1-0.6-1.3
		c-0.4-0.4-0.8-0.6-1.3-0.6c-0.5,0-1,0.2-1.3,0.6C29.8,6.6,29.6,7,29.6,7.6z"/>
	<path class="st0" d="M43.9,3.8h3.8c1,0,1.9,0.4,2.7,1.1c0.7,0.7,1.1,1.6,1.1,2.7v5.7c0,1-0.4,1.9-1.1,2.7c-0.7,0.7-1.6,1.1-2.7,1.1
		h-3.8c-1,0-1.9-0.4-2.7-1.1c-0.7-0.7-1.1-1.6-1.1-2.7V7.6c0-1,0.4-1.9,1.1-2.7C42,4.1,42.9,3.8,43.9,3.8z M43.9,7.6v5.7
		c0,0.5,0.2,0.9,0.6,1.3c0.4,0.4,0.8,0.6,1.3,0.6c0.5,0,1-0.2,1.3-0.6c0.4-0.4,0.6-0.8,0.6-1.3V7.6c0-0.5-0.2-1-0.6-1.3
		c-0.4-0.4-0.8-0.6-1.3-0.6c-0.5,0-1,0.2-1.3,0.6C44.1,6.6,43.9,7,43.9,7.6z"/>
	<path class="st0" d="M62.1,3.8h3.8v6.8c0,1.8-0.6,3.3-1.9,4.5c-1.3,1.3-2.8,1.9-4.6,1.9h-4.9V3.8h3.8v11.3h1.9c0.5,0,1-0.2,1.3-0.6
		c0.4-0.4,0.6-0.8,0.6-1.3V3.8z"/>
	<path class="st0" d="M80.1,11.3h-7.6v1.9c0,0.5,0.2,0.9,0.6,1.3c0.4,0.4,0.8,0.6,1.3,0.6h1.9c1.3,0,1.9-0.6,1.9-1.9h1.9
		c-0.3,2.5-1.6,3.8-3.8,3.8h-3.8c-1,0-1.9-0.4-2.7-1.1c-0.7-0.7-1.1-1.6-1.1-2.7V7.6c0-1,0.4-1.9,1.1-2.7c0.7-0.7,1.6-1.1,2.7-1.1
		h3.8c1,0,1.9,0.4,2.7,1.1c0.7,0.7,1.1,1.6,1.1,2.7V11.3z M72.6,9.4h3.8V7.6c0-0.5-0.2-1-0.6-1.3c-0.4-0.4-0.8-0.6-1.3-0.6
		c-0.5,0-1,0.2-1.3,0.6c-0.4,0.4-0.6,0.8-0.6,1.3V9.4z"/>
	<path class="st0" d="M83.1,17V3.8h3.8v1.9C87,5,87.2,4.6,87.5,4.2c0.3-0.3,0.8-0.5,1.3-0.5h1.9c1,0,1.9,0.4,2.7,1.1
		c0.7,0.7,1.1,1.6,1.1,2.7V17h-3.8V7.6c0-0.5-0.2-1-0.6-1.3c-0.4-0.4-0.8-0.6-1.3-0.6c-0.5,0-1,0.2-1.3,0.6
		c-0.4,0.4-0.6,0.8-0.6,1.3V17H83.1z"/>
	<path class="st0" d="M105,9.4V7.6c0-0.5-0.2-1-0.6-1.3c-0.4-0.4-0.8-0.6-1.3-0.6h-1.9c-1.1,0-1.7,0.6-1.9,1.9h-1.9
		c0.3-2.5,1.5-3.8,3.8-3.8h3.8c1,0,1.9,0.4,2.7,1.1c0.7,0.7,1.1,1.6,1.1,2.7V17H105v-1.9c-0.1,1.3-0.8,1.9-1.9,1.9h-1.9
		c-1,0-1.9-0.4-2.7-1.1c-0.7-0.7-1.1-1.6-1.1-2.7v0c0-1,0.4-1.9,1.1-2.7c0.7-0.7,1.6-1.1,2.7-1.1H105z M105,11.3h-1.9
		c-0.5,0-1,0.2-1.3,0.6c-0.4,0.4-0.6,0.8-0.6,1.3v0c0,0.5,0.2,0.9,0.6,1.3c0.4,0.4,0.8,0.6,1.3,0.6c0.5,0,1-0.2,1.3-0.6
		c0.4-0.4,0.6-0.8,0.6-1.3V11.3z"/>
	<path class="st0" d="M123.2,3.8V17h-3.8v-1.9c-0.1,1.3-0.8,1.9-1.9,1.9h-1.9c-1,0-1.9-0.4-2.7-1.1c-0.7-0.7-1.1-1.6-1.1-2.7V3.8
		h3.8v9.5c0,0.5,0.2,0.9,0.6,1.3c0.4,0.4,0.8,0.6,1.3,0.6c0.5,0,1-0.2,1.3-0.6c0.4-0.4,0.6-0.8,0.6-1.3V3.8H123.2z"/>
	<path class="st0" d="M128,0h3.8v3.8h1.9v1.9h-1.9v7.6c0,0.6,0.2,1.1,0.6,1.4c0.4,0.3,0.8,0.5,1.1,0.5h0.2V17h-1.9
		c-1,0-1.9-0.4-2.7-1.1c-0.7-0.7-1.1-1.6-1.1-2.7V5.7h-1.9V3.8h1.9V0z"/>
	<path class="st0" d="M146,7.6h-1.9c-0.2-1.3-0.8-1.9-1.8-1.9c-0.7,0-1.2,0.1-1.5,0.4c-0.3,0.3-0.5,0.7-0.5,1.2
		c0,0.5,0.9,1.3,2.8,2.3c1.5,0.8,2.4,1.5,2.6,2c0.2,0.5,0.3,1.1,0.3,1.7c0,1.1-0.4,1.9-1.1,2.7c-0.7,0.7-1.6,1.1-2.7,1.1h-1.9
		c-2.5,0-3.8-1.3-3.8-3.8h1.9c0.1,1.3,0.7,1.9,1.8,1.9c0.7,0,1.2-0.1,1.5-0.4c0.3-0.3,0.5-0.7,0.5-1.2c0-0.5-0.9-1.3-2.7-2.3
		c-1.5-0.8-2.4-1.5-2.6-2c-0.2-0.5-0.3-1.1-0.3-1.7c0-1.1,0.4-2,1.1-2.7c0.7-0.7,1.6-1.1,2.7-1.1h1.9C144.6,3.8,145.8,5,146,7.6z"/>
</g>
</svg>
