<?xml version="1.0" encoding="utf-8"?>
<!-- Generator: Adobe Illustrator 21.1.0, SVG Export Plug-In . SVG Version: 6.00 Build 0)  -->
<svg version="1.1" id="レイヤー_1" xmlns="http://www.w3.org/2000/svg" xmlns:xlink="http://www.w3.org/1999/xlink" x="0px"
	 y="0px" viewBox="0 0 190 21" style="enable-background:new 0 0 190 21;" xml:space="preserve">
<style type="text/css">
	.st0{fill:#FFFFFF;}
</style>
<title>Groovenauts, Inc.</title>
<desc>Created with Sketch.</desc>
<path class="st0" d="M16.2,11.8v5.1c0,0.2-0.1,0.3-0.2,0.4l0,0c-0.8,0.6-1.6,1.1-2.6,1.4c-1,0.3-2,0.5-3.1,0.5
	c-1.3,0-2.4-0.2-3.6-0.7c-1.1-0.5-2.1-1.1-2.9-2c-0.8-0.8-1.5-1.8-2-2.9s-0.7-2.3-0.7-3.6c0-0.8,0.1-1.6,0.3-2.4
	C1.7,6.9,2,6.2,2.4,5.5s0.9-1.3,1.4-1.8c0.6-0.6,1.2-1,1.8-1.4c0.7-0.4,1.4-0.7,2.2-0.9S9.4,1,10.3,1c0.6,0,1.3,0.1,1.9,0.2
	c0.6,0.1,1.2,0.3,1.7,0.6c0.2,0.1,0.4,0.2,0.6,0.3c0.3,0.1,0.5,0.3,0.7,0.4c0.2,0.1,0.4,0.3,0.6,0.5s0.2,0.3,0.2,0.4
	c0,0.1,0,0.1,0,0.2c0,0.1-0.1,0.2-0.1,0.3C15.9,3.9,15.8,4,15.7,4c-0.1,0.1-0.2,0.1-0.3,0.1c-0.1,0-0.2,0-0.3-0.1
	c-0.7-0.5-1.4-0.9-2.2-1.2c-0.8-0.3-1.7-0.4-2.6-0.4c-0.7,0-1.4,0.1-2.1,0.3C7.6,2.8,6.9,3.1,6.4,3.4C5.8,3.8,5.2,4.2,4.8,4.7
	c-0.5,0.5-0.9,1-1.2,1.6C3.2,6.8,2.9,7.4,2.8,8.1c-0.2,0.7-0.3,1.3-0.3,2c0,0.7,0.1,1.4,0.3,2.1c0.2,0.7,0.4,1.3,0.8,1.9
	c0.3,0.6,0.7,1.1,1.2,1.6c0.5,0.5,1,0.9,1.6,1.2c0.6,0.3,1.2,0.6,1.8,0.8c0.7,0.2,1.3,0.3,2,0.3c0.8,0,1.6-0.1,2.4-0.4
	c0.8-0.3,1.5-0.6,2.2-1.1v-3.7h-4.3c-0.1,0-0.3,0-0.3-0.1c-0.1-0.1-0.1-0.2-0.1-0.3v-0.4c0-0.3,0.1-0.4,0.4-0.4h5.2
	C16.1,11.4,16.2,11.5,16.2,11.8z"/>
<path class="st0" d="M19.6,7.8c0-0.4,0.2-0.6,0.5-0.6h0.3c0.4,0,0.6,0.2,0.6,0.6v0.5V9c0.1-0.3,0.3-0.6,0.5-0.8
	c0.2-0.2,0.4-0.5,0.7-0.6c0.3-0.2,0.6-0.3,0.9-0.4c0.3-0.1,0.7-0.1,1.1-0.1c0.2,0,0.5,0,0.8,0.1c0.3,0.1,0.6,0.1,0.8,0.3
	c0.3,0.1,0.5,0.2,0.7,0.4c0.2,0.1,0.3,0.3,0.3,0.4c0,0.1,0,0.2-0.1,0.3c0,0.1-0.1,0.2-0.2,0.3c-0.1,0.1-0.1,0.2-0.2,0.2
	C26.1,9,26.1,9.1,26,9.1c-0.1,0-0.1,0-0.1,0c0,0-0.1,0-0.1-0.1c-0.2-0.1-0.5-0.3-0.8-0.4c-0.3-0.1-0.6-0.2-0.9-0.2
	c-0.4,0-0.9,0.1-1.2,0.3c-0.4,0.2-0.7,0.5-1,0.8c-0.3,0.3-0.5,0.7-0.6,1.2C21,11.2,21,11.6,21,12.1l0,6.5c0,0.3-0.1,0.4-0.4,0.4
	h-0.1H20c-0.3,0-0.5-0.1-0.5-0.4v-0.1V7.8z"/>
<path class="st0" d="M28.3,13.1c0-0.8,0.2-1.6,0.5-2.4s0.8-1.4,1.3-2c0.6-0.6,1.2-1,1.9-1.3C32.7,7.2,33.5,7,34.4,7
	c0.8,0,1.6,0.2,2.4,0.5c0.7,0.3,1.4,0.8,2,1.3c0.6,0.6,1,1.2,1.3,2c0.3,0.7,0.5,1.5,0.5,2.4c0,0.8-0.2,1.6-0.5,2.4
	c-0.3,0.7-0.8,1.4-1.3,2c-0.6,0.6-1.2,1-2,1.3c-0.7,0.3-1.5,0.5-2.4,0.5c-0.8,0-1.6-0.2-2.4-0.5c-0.7-0.3-1.4-0.8-1.9-1.3
	c-0.6-0.6-1-1.2-1.3-2C28.4,14.8,28.3,14,28.3,13.1z M29.6,13.1c0,0.7,0.1,1.3,0.4,1.9s0.6,1.1,1,1.5c0.4,0.4,0.9,0.8,1.5,1
	s1.2,0.4,1.9,0.4c0.7,0,1.3-0.1,1.9-0.4s1.1-0.6,1.5-1c0.4-0.4,0.8-1,1-1.5s0.4-1.2,0.4-1.9c0-0.7-0.1-1.3-0.4-1.9s-0.6-1.1-1-1.5
	c-0.4-0.4-0.9-0.8-1.5-1s-1.2-0.4-1.9-0.4c-0.7,0-1.3,0.1-1.9,0.4s-1.1,0.6-1.5,1c-0.4,0.4-0.8,0.9-1,1.5S29.6,12.5,29.6,13.1z"/>
<path class="st0" d="M43,13.1c0-0.8,0.2-1.6,0.5-2.4s0.8-1.4,1.3-2c0.6-0.6,1.2-1,1.9-1.3C47.4,7.2,48.2,7,49.1,7
	c0.8,0,1.6,0.2,2.4,0.5c0.7,0.3,1.4,0.8,2,1.3c0.6,0.6,1,1.2,1.3,2c0.3,0.7,0.5,1.5,0.5,2.4c0,0.8-0.2,1.6-0.5,2.4
	c-0.3,0.7-0.8,1.4-1.3,2c-0.6,0.6-1.2,1-2,1.3c-0.7,0.3-1.5,0.5-2.4,0.5c-0.8,0-1.6-0.2-2.4-0.5c-0.7-0.3-1.4-0.8-1.9-1.3
	c-0.6-0.6-1-1.2-1.3-2C43.1,14.8,43,14,43,13.1z M44.3,13.1c0,0.7,0.1,1.3,0.4,1.9s0.6,1.1,1,1.5c0.4,0.4,0.9,0.8,1.5,1
	s1.2,0.4,1.9,0.4c0.7,0,1.3-0.1,1.9-0.4s1.1-0.6,1.5-1c0.4-0.4,0.8-1,1-1.5s0.4-1.2,0.4-1.9c0-0.7-0.1-1.3-0.4-1.9s-0.6-1.1-1-1.5
	c-0.4-0.4-0.9-0.8-1.5-1s-1.2-0.4-1.9-0.4c-0.7,0-1.3,0.1-1.9,0.4s-1.1,0.6-1.5,1c-0.4,0.4-0.8,0.9-1,1.5S44.3,12.5,44.3,13.1z"/>
<path class="st0" d="M61.3,15.7c0.1,0.1,0.1,0.3,0.2,0.4c0.1,0.2,0.1,0.3,0.2,0.4c0.1-0.1,0.1-0.3,0.2-0.4s0.1-0.3,0.2-0.5
	c0.6-1.4,1.1-2.7,1.7-4.1c0.6-1.3,1.1-2.7,1.7-4c0.1-0.2,0.2-0.3,0.4-0.3s0.3-0.1,0.5-0.1c0.2,0,0.3,0,0.4,0.1s0.1,0.2,0.1,0.3
	c0,0.1,0,0.1,0,0.2L62,19.1c0,0-0.1,0.1-0.1,0.2c-0.1,0.1-0.1,0.1-0.2,0.1c-0.1,0-0.1,0-0.2-0.1c-0.1,0-0.1-0.1-0.2-0.3L56.6,7.8
	c0,0,0,0,0-0.1c0,0,0-0.1,0-0.1c0-0.1,0-0.2,0.1-0.3c0.1-0.1,0.2-0.1,0.3-0.1c0.1,0,0.2,0,0.3,0c0.1,0,0.2,0,0.3,0
	c0.1,0,0.2,0.1,0.2,0.1c0.1,0,0.1,0.1,0.2,0.2L61.3,15.7z"/>
<path class="st0" d="M74.6,18c0.5,0,1-0.1,1.5-0.2c0.5-0.2,0.9-0.4,1.3-0.7c0.1-0.1,0.2-0.2,0.3-0.3c0.1-0.1,0.2-0.2,0.3-0.2
	c0.1,0,0.1,0,0.2,0.1c0.1,0.1,0.1,0.1,0.2,0.2c0.1,0.1,0.1,0.2,0.2,0.3c0,0.1,0.1,0.2,0.1,0.3c-0.1,0.1-0.2,0.2-0.3,0.3
	c-0.1,0.1-0.2,0.2-0.3,0.3c-0.5,0.3-1,0.6-1.6,0.8c-0.6,0.2-1.2,0.3-1.9,0.3c-0.8,0-1.6-0.2-2.4-0.5c-0.7-0.3-1.4-0.8-2-1.3
	c-0.6-0.6-1-1.2-1.3-1.9c-0.3-0.7-0.5-1.5-0.5-2.4c0-0.8,0.2-1.6,0.5-2.4s0.7-1.4,1.3-2c0.5-0.6,1.2-1,1.9-1.3
	C72.8,7.2,73.6,7,74.4,7c0.8,0,1.5,0.2,2.2,0.5c0.7,0.3,1.3,0.7,1.8,1.3s0.9,1.2,1.2,1.9c0.3,0.7,0.5,1.5,0.5,2.4
	c0,0.3-0.1,0.4-0.2,0.5s-0.3,0.1-0.6,0.1h-9.5c0,0.6,0.2,1.2,0.5,1.7s0.6,1,1,1.4c0.4,0.4,0.9,0.7,1.5,0.9S74,18,74.6,18z
	 M78.8,12.4c-0.1-0.6-0.2-1.1-0.5-1.6c-0.3-0.5-0.6-0.9-1-1.3S76.5,8.8,76,8.6c-0.5-0.2-1-0.3-1.6-0.3c-0.6,0-1.1,0.1-1.6,0.3
	c-0.5,0.2-1,0.5-1.4,0.9c-0.4,0.4-0.7,0.8-1,1.3s-0.5,1-0.5,1.6H78.8z"/>
<path class="st0" d="M84.7,18.6c0,0.3-0.1,0.4-0.4,0.4h-0.5c-0.3,0-0.5-0.1-0.5-0.4v-11c0-0.1,0-0.2,0.1-0.3s0.2-0.1,0.3-0.1h0.7
	c0.1,0,0.1,0,0.2,0.1c0.1,0,0.1,0.1,0.1,0.2l0,1.6c0.2-0.3,0.4-0.6,0.7-0.8C85.7,8,86,7.8,86.3,7.6c0.3-0.2,0.7-0.3,1-0.4
	C87.7,7,88.1,7,88.5,7c0.7,0,1.3,0.1,1.9,0.4S91.5,8,92,8.4c0.4,0.4,0.8,1,1,1.6c0.2,0.6,0.4,1.2,0.4,1.9v6.6c0,0.2,0,0.3-0.1,0.4
	S93,19,92.9,19h-0.5c-0.2,0-0.3,0-0.3-0.1C92,18.8,92,18.7,92,18.5v-6.6c0-0.5-0.1-1-0.3-1.4c-0.2-0.4-0.5-0.8-0.8-1.1
	c-0.3-0.3-0.7-0.6-1.1-0.8c-0.4-0.2-0.9-0.3-1.4-0.3c-0.5,0-0.9,0.1-1.4,0.3S86.2,9,85.9,9.4c-0.3,0.3-0.6,0.7-0.8,1.1
	s-0.3,0.9-0.3,1.4V18.6z"/>
<path class="st0" d="M107.5,18.6c0,0.1,0,0.2-0.1,0.3S107.1,19,107,19h-0.4c-0.3,0-0.5-0.2-0.5-0.5v-2.1c-0.1,0.4-0.4,0.8-0.6,1.2
	c-0.3,0.3-0.6,0.6-1,0.9c-0.4,0.2-0.8,0.4-1.3,0.6s-1,0.2-1.5,0.2c-0.8,0-1.6-0.2-2.3-0.5c-0.7-0.3-1.3-0.8-1.8-1.3
	c-0.5-0.6-0.9-1.2-1.2-1.9C96.1,14.8,96,14,96,13.2s0.1-1.6,0.4-2.4c0.3-0.7,0.7-1.4,1.2-2c0.5-0.6,1.1-1,1.8-1.3
	c0.7-0.3,1.5-0.5,2.3-0.5c0.5,0,1,0.1,1.5,0.2s0.9,0.3,1.3,0.6c0.4,0.2,0.7,0.5,1,0.9c0.3,0.3,0.5,0.7,0.6,1.1l0-2.1
	c0-0.2,0-0.3,0.1-0.4s0.2-0.1,0.3-0.1h0.3c0.1,0,0.3,0,0.4,0.1c0.1,0.1,0.1,0.2,0.1,0.4V18.6z M106.1,13.2c0-0.7-0.1-1.3-0.3-1.9
	c-0.2-0.6-0.5-1.1-0.9-1.5c-0.4-0.4-0.8-0.8-1.4-1c-0.5-0.3-1.1-0.4-1.8-0.4c-0.6,0-1.2,0.1-1.8,0.4c-0.5,0.3-1,0.6-1.4,1
	c-0.4,0.4-0.7,0.9-0.9,1.5c-0.2,0.6-0.3,1.2-0.3,1.9s0.1,1.3,0.3,1.9c0.2,0.6,0.5,1.1,0.9,1.5c0.4,0.4,0.9,0.8,1.4,1
	c0.5,0.3,1.1,0.4,1.8,0.4c0.6,0,1.2-0.1,1.8-0.4c0.5-0.2,1-0.6,1.4-1c0.4-0.4,0.7-0.9,0.9-1.5C106,14.5,106.1,13.8,106.1,13.2z"/>
<path class="st0" d="M120.9,18.6c0,0.1,0,0.2-0.1,0.3s-0.2,0.1-0.3,0.1H120c-0.1,0-0.3,0-0.3-0.1c-0.1-0.1-0.1-0.2-0.1-0.3
	c0-0.2,0-0.5,0-0.7c0-0.2,0-0.5,0-0.7c-0.2,0.3-0.4,0.6-0.7,0.9c-0.3,0.3-0.6,0.5-0.9,0.7c-0.3,0.2-0.7,0.3-1.1,0.4
	c-0.4,0.1-0.8,0.2-1.2,0.2c-0.7,0-1.3-0.1-1.9-0.4c-0.6-0.3-1.1-0.6-1.5-1c-0.4-0.4-0.8-1-1-1.6c-0.2-0.6-0.4-1.2-0.4-1.9V7.7
	c0-0.2,0-0.3,0.1-0.4c0.1-0.1,0.2-0.1,0.3-0.1h0.4c0.2,0,0.3,0,0.3,0.1s0.1,0.2,0.1,0.3v6.7c0,0.5,0.1,1,0.3,1.4
	c0.2,0.4,0.4,0.8,0.8,1.1c0.3,0.3,0.7,0.6,1.1,0.8c0.4,0.2,0.9,0.3,1.5,0.3c0.5,0,1-0.1,1.4-0.3c0.4-0.2,0.8-0.4,1.2-0.8
	c0.3-0.3,0.6-0.7,0.8-1.1c0.2-0.4,0.3-0.9,0.3-1.4V7.7c0-0.3,0.1-0.4,0.4-0.4h0.4c0.3,0,0.5,0.1,0.5,0.4V18.6z"/>
<path class="st0" d="M129.2,17.8c0.1,0,0.3,0,0.4,0.1c0.1,0.1,0.2,0.2,0.2,0.4v0.4c0,0.2-0.1,0.3-0.2,0.4c-0.1,0.1-0.2,0.1-0.4,0.1
	h-0.4c-0.4,0-0.8,0-1.1-0.1c-0.4-0.1-0.7-0.2-0.9-0.4c-0.3-0.2-0.5-0.5-0.6-0.9c-0.1-0.4-0.2-0.9-0.2-1.6V8.5h-1.7
	c-0.2,0-0.3,0-0.4-0.1c-0.1-0.1-0.1-0.2-0.1-0.3V7.7c0-0.2,0-0.3,0.1-0.3c0.1-0.1,0.2-0.1,0.4-0.1h1.7V3.7c0-0.2,0.1-0.4,0.4-0.4
	l0.6-0.1c0.2,0,0.3,0,0.3,0.1s0.1,0.2,0.1,0.4v3.5h2.1c0.1,0,0.3,0,0.3,0.1c0.1,0.1,0.1,0.2,0.1,0.3v0.4c0,0.2,0,0.3-0.1,0.3
	c-0.1,0.1-0.2,0.1-0.3,0.1h-2.1v7.4c0,0.4,0,0.8,0.1,1s0.1,0.4,0.3,0.5c0.1,0.1,0.3,0.2,0.4,0.2c0.2,0,0.4,0.1,0.7,0.1H129.2z"/>
<path class="st0" d="M138.4,9.6c-0.3-0.4-0.6-0.8-1-1c-0.4-0.3-0.9-0.4-1.5-0.4c-0.3,0-0.7,0-0.9,0.1c-0.3,0.1-0.5,0.2-0.7,0.4
	c-0.2,0.2-0.4,0.4-0.5,0.6s-0.2,0.5-0.2,0.8c0,0.3,0.1,0.5,0.2,0.8c0.1,0.2,0.3,0.4,0.6,0.6c0.2,0.2,0.5,0.3,0.7,0.4
	c0.3,0.1,0.5,0.2,0.8,0.3l0.4,0.1c0.6,0.2,1.1,0.4,1.6,0.6c0.5,0.2,0.9,0.5,1.2,0.8s0.6,0.6,0.8,1c0.2,0.4,0.3,0.8,0.3,1.2
	c0,0.5-0.1,1-0.3,1.5c-0.2,0.4-0.5,0.8-0.9,1.1s-0.8,0.5-1.3,0.7c-0.5,0.1-1,0.2-1.6,0.2c-0.5,0-0.9-0.1-1.3-0.2
	c-0.4-0.1-0.8-0.3-1.2-0.5s-0.7-0.5-0.9-0.8s-0.5-0.7-0.6-1.1c0-0.1,0-0.1,0-0.2c0-0.1,0-0.1,0.1-0.2c0.1-0.1,0.1-0.1,0.2-0.2
	l0.5-0.2c0.1,0,0.1,0,0.2,0c0.1,0,0.1,0,0.2,0.1c0.1,0,0.1,0.1,0.1,0.2l0.1,0.1c0.1,0.3,0.3,0.5,0.5,0.7c0.2,0.2,0.4,0.4,0.7,0.5
	s0.5,0.2,0.8,0.3c0.3,0.1,0.5,0.1,0.7,0.1c0.3,0,0.6,0,0.9-0.1s0.6-0.2,0.9-0.4c0.3-0.2,0.5-0.4,0.7-0.7c0.2-0.3,0.3-0.6,0.3-0.9
	c0-0.3-0.1-0.6-0.3-0.9c-0.2-0.3-0.4-0.5-0.7-0.7c-0.3-0.2-0.6-0.3-1-0.5c-0.4-0.1-0.7-0.2-1-0.3c-0.4-0.1-0.8-0.3-1.2-0.5
	s-0.8-0.4-1.1-0.7c-0.3-0.3-0.6-0.6-0.8-0.9c-0.2-0.4-0.3-0.7-0.3-1.2c0-0.5,0.1-0.9,0.3-1.3c0.2-0.4,0.4-0.7,0.7-1
	c0.3-0.3,0.7-0.5,1.2-0.7c0.5-0.2,1-0.2,1.5-0.2c0.8,0,1.5,0.2,2.2,0.5c0.6,0.3,1.2,0.9,1.6,1.6c0,0.1,0.1,0.2,0.1,0.2
	c0,0.1,0,0.1,0,0.2c0,0.1-0.1,0.1-0.1,0.2l-0.4,0.3c-0.1,0.1-0.2,0.1-0.3,0.1c-0.1,0-0.2,0-0.2-0.1C138.6,9.9,138.5,9.8,138.4,9.6
	L138.4,9.6L138.4,9.6z"/>
<path class="st0" d="M142.9,18.2c0-0.3,0.1-0.6,0.3-0.8s0.5-0.3,0.8-0.3c0.4,0,0.7,0.1,0.9,0.4c0.2,0.3,0.3,0.6,0.3,1
	c0,0.4,0,0.8-0.1,1.1c-0.1,0.3-0.2,0.6-0.3,0.8s-0.2,0.4-0.4,0.5c-0.1,0.1-0.2,0.2-0.3,0.2c0,0-0.1,0-0.2-0.1
	c-0.1,0-0.1-0.1-0.2-0.1s-0.1-0.1-0.2-0.2c0-0.1-0.1-0.1-0.1-0.2c0-0.1,0-0.1,0.1-0.2c0-0.1,0.1-0.1,0.1-0.2
	c0.1-0.1,0.1-0.2,0.1-0.2c0-0.1,0.1-0.2,0.1-0.3v-0.1c-0.3,0-0.5-0.2-0.8-0.4C143,18.7,142.9,18.5,142.9,18.2z"/>
<path class="st0" d="M155.7,1.6c0-0.1,0-0.2,0.1-0.3c0.1-0.1,0.2-0.1,0.3-0.1h0.4c0.1,0,0.2,0,0.3,0.1c0.1,0.1,0.1,0.2,0.1,0.3v17
	c0,0.3-0.1,0.4-0.4,0.4h-0.4c-0.3,0-0.4-0.1-0.4-0.4V1.6z"/>
<path class="st0" d="M162.4,18.6c0,0.3-0.1,0.4-0.4,0.4h-0.5c-0.3,0-0.5-0.1-0.5-0.4v-11c0-0.1,0-0.2,0.1-0.3
	c0.1-0.1,0.2-0.1,0.3-0.1h0.7c0.1,0,0.1,0,0.2,0.1c0.1,0,0.1,0.1,0.1,0.2l0,1.6c0.2-0.3,0.4-0.6,0.7-0.8c0.3-0.3,0.6-0.5,0.9-0.7
	c0.3-0.2,0.7-0.3,1.1-0.4c0.4-0.1,0.8-0.2,1.2-0.2c0.7,0,1.3,0.1,1.9,0.4s1.1,0.6,1.5,1.1c0.4,0.4,0.8,1,1,1.6
	c0.2,0.6,0.4,1.2,0.4,1.9v6.6c0,0.2,0,0.3-0.1,0.4s-0.2,0.1-0.3,0.1h-0.5c-0.2,0-0.3,0-0.3-0.1c-0.1-0.1-0.1-0.2-0.1-0.4v-6.6
	c0-0.5-0.1-1-0.3-1.4c-0.2-0.4-0.5-0.8-0.8-1.1c-0.3-0.3-0.7-0.6-1.1-0.8c-0.4-0.2-0.9-0.3-1.4-0.3c-0.5,0-0.9,0.1-1.4,0.3
	s-0.8,0.4-1.2,0.7c-0.3,0.3-0.6,0.7-0.8,1.1s-0.3,0.9-0.3,1.4V18.6z"/>
<path class="st0" d="M182.9,16.4c0.1-0.1,0.2-0.2,0.3-0.2c0,0,0.1,0,0.2,0c0.1,0,0.1,0.1,0.2,0.1l0.3,0.4c0.1,0.1,0.1,0.2,0.1,0.2
	c0,0.1,0,0.1-0.1,0.2c-0.1,0.1-0.1,0.2-0.3,0.3c-0.6,0.5-1.2,0.9-1.9,1.3c-0.7,0.3-1.4,0.5-2.3,0.5c-0.9,0-1.6-0.2-2.4-0.5
	c-0.7-0.3-1.3-0.8-1.9-1.3c-0.5-0.6-0.9-1.2-1.2-2c-0.3-0.7-0.4-1.5-0.4-2.4c0-0.8,0.1-1.6,0.4-2.4c0.3-0.7,0.7-1.4,1.2-2
	c0.5-0.6,1.2-1,1.9-1.3c0.7-0.3,1.5-0.5,2.4-0.5c0.8,0,1.5,0.1,2.2,0.4c0.7,0.3,1.3,0.6,1.8,1.1c0.1,0.1,0.2,0.1,0.3,0.2
	c0.1,0.1,0.1,0.2,0.1,0.3s0,0.2-0.1,0.3l-0.3,0.3c-0.1,0.1-0.1,0.2-0.2,0.2c-0.1,0-0.1,0.1-0.2,0.1c-0.1,0-0.2-0.1-0.3-0.2
	c-0.4-0.4-0.9-0.8-1.5-1c-0.5-0.2-1.1-0.4-1.8-0.4c-0.7,0-1.3,0.1-1.8,0.4c-0.6,0.3-1,0.6-1.4,1c-0.4,0.4-0.7,0.9-0.9,1.5
	c-0.2,0.6-0.3,1.2-0.3,1.9c0,0.7,0.1,1.3,0.3,1.9c0.2,0.6,0.5,1.1,0.9,1.5c0.4,0.4,0.9,0.8,1.4,1c0.6,0.3,1.2,0.4,1.8,0.4
	c0.3,0,0.6,0,0.9-0.1c0.3-0.1,0.6-0.2,0.9-0.3c0.3-0.1,0.6-0.3,0.8-0.5C182.5,16.8,182.7,16.7,182.9,16.4z"/>
<path class="st0" d="M186.6,18.1c0-0.2,0-0.3,0.1-0.4c0.1-0.1,0.1-0.3,0.2-0.4c0.1-0.1,0.2-0.2,0.4-0.2c0.1-0.1,0.3-0.1,0.4-0.1
	c0.2,0,0.3,0,0.4,0.1c0.1,0.1,0.3,0.1,0.4,0.2c0.1,0.1,0.2,0.2,0.2,0.4c0.1,0.1,0.1,0.3,0.1,0.4c0,0.2,0,0.3-0.1,0.4
	c-0.1,0.1-0.1,0.3-0.2,0.4s-0.2,0.2-0.4,0.2c-0.1,0.1-0.3,0.1-0.4,0.1c-0.2,0-0.3,0-0.4-0.1c-0.1-0.1-0.3-0.1-0.4-0.2
	s-0.2-0.2-0.2-0.4C186.7,18.4,186.6,18.3,186.6,18.1z"/>
</svg>
